<svg xmlns="http://www.w3.org/2000/svg" viewBox="0 0 800 500" width="800" height="500" role="img" aria-label="마늘 로제 파스타 일러스트">
  <rect width="800" height="500" fill="#F3EEE6"/>
  <circle cx="400" cy="255" r="222" fill="#E6DED1"/>

  <!-- plate -->
  <circle cx="400" cy="250" r="208" fill="#FFFFFF"/>
  <circle cx="400" cy="250" r="208" fill="none" stroke="#DED5C6" stroke-width="4"/>
  <circle cx="400" cy="250" r="168" fill="#FAF7F1"/>
  <circle cx="400" cy="250" r="168" fill="none" stroke="#E5DCCD" stroke-width="3"/>

  <!-- sauce pool -->
  <path d="M400 96 q86-6 122 62 q42 60 8 122 q-26 74-104 78 q-84 12-128-52 q-50-56-20-124 q30-80 122-86z" fill="#DE6E5B"/>
  <path d="M400 118 q72-4 102 54 q36 50 6 104 q-22 62-88 66 q-70 10-108-44 q-42-48-16-104 q26-68 104-76z" fill="#E88472"/>

  <!-- pasta nest -->
  <g fill="none" stroke="#F3C97E" stroke-width="11" stroke-linecap="round">
    <ellipse cx="400" cy="248" rx="118" ry="52" transform="rotate(8 400 248)"/>
    <ellipse cx="396" cy="252" rx="104" ry="66" transform="rotate(-32 396 252)"/>
    <ellipse cx="404" cy="244" rx="96" ry="58" transform="rotate(52 404 244)"/>
    <ellipse cx="392" cy="258" rx="82" ry="44" transform="rotate(-68 392 258)"/>
    <ellipse cx="408" cy="240" rx="70" ry="38" transform="rotate(24 408 240)"/>
    <ellipse cx="398" cy="256" rx="54" ry="30" transform="rotate(-12 398 256)"/>
  </g>
  <g fill="none" stroke="#E8B45F" stroke-width="4" stroke-linecap="round" opacity="0.7">
    <ellipse cx="400" cy="248" rx="118" ry="52" transform="rotate(8 400 248)"/>
    <ellipse cx="396" cy="252" rx="104" ry="66" transform="rotate(-32 396 252)"/>
    <ellipse cx="404" cy="244" rx="96" ry="58" transform="rotate(52 404 244)"/>
  </g>
  <!-- loose strand -->
  <path d="M292 300 q-46 34-30 74 q14 32 56 22" fill="none" stroke="#F3C97E" stroke-width="10" stroke-linecap="round"/>

  <!-- bacon -->
  <g>
    <g transform="rotate(-16 330 196)">
      <rect x="300" y="182" width="62" height="26" rx="9" fill="#C4533F"/>
      <rect x="300" y="190" width="62" height="8" rx="4" fill="#EBB6A6"/>
    </g>
    <g transform="rotate(22 486 214)">
      <rect x="456" y="200" width="58" height="24" rx="9" fill="#C4533F"/>
      <rect x="456" y="207" width="58" height="8" rx="4" fill="#EBB6A6"/>
    </g>
    <g transform="rotate(-8 420 330)">
      <rect x="392" y="318" width="64" height="25" rx="9" fill="#B84A38"/>
      <rect x="392" y="326" width="64" height="8" rx="4" fill="#E5AC9C"/>
    </g>
  </g>

  <!-- garlic bits -->
  <g fill="#FFF6E2">
    <circle cx="352" cy="286" r="9"/>
    <circle cx="452" cy="164" r="8"/>
    <circle cx="304" cy="240" r="8"/>
    <circle cx="496" cy="300" r="9"/>
    <circle cx="376" cy="368" r="8"/>
    <circle cx="486" cy="376" r="7"/>
  </g>

  <!-- basil -->
  <g fill="#4B8F43">
    <path d="M470 128 q34-30 62-14 q-10 34-44 36 q-22 2-18-22z"/>
    <path d="M310 344 q-36-26-62-6 q14 32 48 30 q22 0 14-24z" fill="#3F7F39"/>
  </g>

  <!-- pepper -->
  <g fill="#3B2A22" opacity="0.75">
    <circle cx="392" cy="204" r="4"/>
    <circle cx="446" cy="262" r="3.5"/>
    <circle cx="336" cy="318" r="4"/>
    <circle cx="424" cy="146" r="3"/>
    <circle cx="512" cy="238" r="3.5"/>
  </g>

  <!-- fork -->
  <g transform="rotate(18 690 300)" fill="#B9BEC4">
    <rect x="666" y="290" width="16" height="170" rx="8"/>
    <rect x="654" y="230" width="9" height="62" rx="4"/>
    <rect x="666" y="230" width="9" height="62" rx="4"/>
    <rect x="678" y="230" width="9" height="62" rx="4"/>
    <rect x="690" y="230" width="9" height="62" rx="4"/>
    <rect x="654" y="278" width="45" height="20" rx="10"/>
  </g>
</svg>
